HIERARCHY
ROOT Root
{
  OFFSET 0.0 0.0 0.0
  CHANNELS 6 Xposition Yposition Zposition Zrotation Yrotation Xrotation
  JOINT Hips
  {
    OFFSET 0.0 100.0 0.0
    CHANNELS 6 Xposition Yposition Zposition Zrotation Yrotation Xrotation
    JOINT Spine1
    {
      OFFSET -0.013727 5.003763 -0.053727
      CHANNELS 3 Zrotation Yrotation Xrotation
      JOINT Spine2
      {
        OFFSET -0.0 7.125301 -0.029825
        CHANNELS 3 Zrotation Yrotation Xrotation
        JOINT Chest
        {
          OFFSET -1e-06 7.550063 -0.815971
          CHANNELS 3 Zrotation Yrotation Xrotation
          JOINT Neck1
          {
            OFFSET -0.181677 26.311295 -0.553348
            CHANNELS 3 Zrotation Yrotation Xrotation
            JOINT Neck2
            {
              OFFSET -3e-06 7.709397 2.302585
              CHANNELS 3 Zrotation Yrotation Xrotation
              JOINT Head
              {
                OFFSET -5e-06 6.128916 1.953709
                CHANNELS 3 Zrotation Yrotation Xrotation
                JOINT HeadEnd
                {
                  OFFSET 0.003598 16.065403 -1.835379
                  CHANNELS 3 Zrotation Yrotation Xrotation
                }
                JOINT Jaw
                {
                  OFFSET 0.002637 0.475592 3.094941
                  CHANNELS 3 Zrotation Yrotation Xrotation
                }
                JOINT LeftEye
                {
                  OFFSET 3.206381 5.380205 7.586883
                  CHANNELS 3 Zrotation Yrotation Xrotation
                }
                JOINT RightEye
                {
                  OFFSET -3.22244 5.361869 7.558234
                  CHANNELS 3 Zrotation Yrotation Xrotation
                }
              }
            }
          }
          JOINT LeftShoulder
          {
            OFFSET 1.621652 23.237164 5.113413
            CHANNELS 3 Zrotation Yrotation Xrotation
            JOINT LeftArm
            {
              OFFSET 14.919846 2e-06 -5.502326
              CHANNELS 3 Zrotation Yrotation Xrotation
              JOINT LeftForeArm
              {
                OFFSET 28.739307 0.0 -0.002588
                CHANNELS 3 Zrotation Yrotation Xrotation
                JOINT LeftHand
                {
                  OFFSET 27.093981 -1e-06 0.002609
                  CHANNELS 3 Zrotation Yrotation Xrotation
                  JOINT LeftHandThumb1
                  {
                    OFFSET 2.276482 -1.392045 3.191413
                    CHANNELS 3 Zrotation Yrotation Xrotation
                    JOINT LeftHandThumb2
                    {
                      OFFSET 4.012836 -1.828127 1.641654
                      CHANNELS 3 Zrotation Yrotation Xrotation
                      JOINT LeftHandThumb3
                      {
                        OFFSET 2.798515 0.0 -3e-06
                        CHANNELS 3 Zrotation Yrotation Xrotation
                        JOINT LeftHandThumbEnd
                        {
                          OFFSET 3.180793 -4e-06 4e-06
                          CHANNELS 3 Zrotation Yrotation Xrotation
                        }
                      }
                    }
                  }
                  JOINT LeftHandIndex1
                  {
                    OFFSET 3.247555 -0.531998 2.296169
                    CHANNELS 3 Zrotation Yrotation Xrotation
                    JOINT LeftHandIndex2
                    {
                      OFFSET 6.364578 0.01206 0.1786
                      CHANNELS 3 Zrotation Yrotation Xrotation
                      JOINT LeftHandIndex3
                      {
                        OFFSET 3.662364 0.0 0.0
                        CHANNELS 3 Zrotation Yrotation Xrotation
                        JOINT LeftHandIndex4
                        {
                          OFFSET 2.329242 4e-06 4e-06
                          CHANNELS 3 Zrotation Yrotation Xrotation
                          JOINT LeftHandIndexEnd
                          {
                            OFFSET 2.759615 -0.180537 -0.113024
                            CHANNELS 3 Zrotation Yrotation Xrotation
                          }
                        }
                      }
                    }
                  }
                  JOINT LeftHandMiddle1
                  {
                    OFFSET 3.163495 0.240981 1.000332
                    CHANNELS 3 Zrotation Yrotation Xrotation
                    JOINT LeftHandMiddle2
                    {
                      OFFSET 6.19078 -0.259278 -1.002548
                      CHANNELS 3 Zrotation Yrotation Xrotation
                      JOINT LeftHandMiddle3
                      {
                        OFFSET 4.35652 -4e-06 -1e-06
                        CHANNELS 3 Zrotation Yrotation Xrotation
                        JOINT LeftHandMiddle4
                        {
                          OFFSET 2.996877 -8e-06 0.0
                          CHANNELS 3 Zrotation Yrotation Xrotation
                          JOINT LeftHandMiddleEnd
                          {
                            OFFSET 2.304287 -0.294569 -0.031741
                            CHANNELS 3 Zrotation Yrotation Xrotation
                          }
                        }
                      }
                    }
                  }
                  JOINT LeftHandRing1
                  {
                    OFFSET 2.882643 -0.053652 -0.322543
                    CHANNELS 3 Zrotation Yrotation Xrotation
                    JOINT LeftHandRing2
                    {
                      OFFSET 5.854541 -0.486202 -1.373841
                      CHANNELS 3 Zrotation Yrotation Xrotation
                      JOINT LeftHandRing3
                      {
                        OFFSET 4.350578 0.0 3e-06
                        CHANNELS 3 Zrotation Yrotation Xrotation
                        JOINT LeftHandRing4
                        {
                          OFFSET 2.651321 7e-06 2e-06
                          CHANNELS 3 Zrotation Yrotation Xrotation
                          JOINT LeftHandRingEnd
                          {
                            OFFSET 1.936105 0.077687 -7.1e-05
                            CHANNELS 3 Zrotation Yrotation Xrotation
                          }
                        }
                      }
                    }
                  }
                  JOINT LeftHandPinky1
                  {
                    OFFSET 2.8655 -0.310005 -1.600378
                    CHANNELS 3 Zrotation Yrotation Xrotation
                    JOINT LeftHandPinky2
                    {
                      OFFSET 5.087849 -1.331141 -1.77123
                      CHANNELS 3 Zrotation Yrotation Xrotation
                      JOINT LeftHandPinky3
                      {
                        OFFSET 3.070974 4e-06 0.0
                        CHANNELS 3 Zrotation Yrotation Xrotation
                        JOINT LeftHandPinky4
                        {
                          OFFSET 1.549672 0.0 1e-06
                          CHANNELS 3 Zrotation Yrotation Xrotation
                          JOINT LeftHandPinkyEnd
                          {
                            OFFSET 1.944893 -0.157802 0.057219
                            CHANNELS 3 Zrotation Yrotation Xrotation
                          }
                        }
                      }
                    }
                  }
                }
              }
            }
          }
          JOINT RightShoulder
          {
            OFFSET -1.380118 23.180309 5.214158
            CHANNELS 3 Zrotation Yrotation Xrotation
            JOINT RightArm
            {
              OFFSET -15.037196 1.2e-05 -5.545604
              CHANNELS 3 Zrotation Yrotation Xrotation
              JOINT RightForeArm
              {
                OFFSET -28.736639 2e-06 -0.002597
                CHANNELS 3 Zrotation Yrotation Xrotation
                JOINT RightHand
                {
                  OFFSET -27.133619 -0.0 0.002613
                  CHANNELS 3 Zrotation Yrotation Xrotation
                  JOINT RightHandThumb1
                  {
                    OFFSET -2.274032 -1.383988 3.163127
                    CHANNELS 3 Zrotation Yrotation Xrotation
                    JOINT RightHandThumb2
                    {
                      OFFSET -4.011429 -1.827466 1.640914
                      CHANNELS 3 Zrotation Yrotation Xrotation
                      JOINT RightHandThumb3
                      {
                        OFFSET -2.794935 -4e-06 -3e-06
                        CHANNELS 3 Zrotation Yrotation Xrotation
                        JOINT RightHandThumbEnd
                        {
                          OFFSET -3.183852 4e-06 1e-06
                          CHANNELS 3 Zrotation Yrotation Xrotation
                        }
                      }
                    }
                  }
                  JOINT RightHandIndex1
                  {
                    OFFSET -3.253266 -0.520057 2.282866
                    CHANNELS 3 Zrotation Yrotation Xrotation
                    JOINT RightHandIndex2
                    {
                      OFFSET -6.341917 0.012471 0.178266
                      CHANNELS 3 Zrotation Yrotation Xrotation
                      JOINT RightHandIndex3
                      {
                        OFFSET -3.654871 -8e-06 -0.0
                        CHANNELS 3 Zrotation Yrotation Xrotation
                        JOINT RightHandIndex4
                        {
                          OFFSET -2.327586 0.0 1e-06
                          CHANNELS 3 Zrotation Yrotation Xrotation
                          JOINT RightHandIndexEnd
                          {
                            OFFSET -2.76179 -0.180656 -0.113078
                            CHANNELS 3 Zrotation Yrotation Xrotation
                          }
                        }
                      }
                    }
                  }
                  JOINT RightHandMiddle1
                  {
                    OFFSET -3.168106 0.246593 1.00103
                    CHANNELS 3 Zrotation Yrotation Xrotation
                    JOINT RightHandMiddle2
                    {
                      OFFSET -6.180828 -0.258836 -1.000895
                      CHANNELS 3 Zrotation Yrotation Xrotation
                      JOINT RightHandMiddle3
                      {
                        OFFSET -4.348901 0.0 -0.0
                        CHANNELS 3 Zrotation Yrotation Xrotation
                        JOINT RightHandMiddle4
                        {
                          OFFSET -3.00024 -4e-06 -2e-06
                          CHANNELS 3 Zrotation Yrotation Xrotation
                          JOINT RightHandMiddleEnd
                          {
                            OFFSET -2.30252 -0.29437 -0.031706
                            CHANNELS 3 Zrotation Yrotation Xrotation
                          }
                        }
                      }
                    }
                  }
                  JOINT RightHandRing1
                  {
                    OFFSET -2.88569 -0.067952 -0.308858
                    CHANNELS 3 Zrotation Yrotation Xrotation
                    JOINT RightHandRing2
                    {
                      OFFSET -5.854198 -0.48613 -1.373731
                      CHANNELS 3 Zrotation Yrotation Xrotation
                      JOINT RightHandRing3
                      {
                        OFFSET -4.33881 -4e-06 -0.0
                        CHANNELS 3 Zrotation Yrotation Xrotation
                        JOINT RightHandRing4
                        {
                          OFFSET -2.654903 -4e-06 4e-06
                          CHANNELS 3 Zrotation Yrotation Xrotation
                          JOINT RightHandRingEnd
                          {
                            OFFSET -1.933568 0.077527 -5.2e-05
                            CHANNELS 3 Zrotation Yrotation Xrotation
                          }
                        }
                      }
                    }
                  }
                  JOINT RightHandPinky1
                  {
                    OFFSET -2.866425 -0.342796 -1.584145
                    CHANNELS 3 Zrotation Yrotation Xrotation
                    JOINT RightHandPinky2
                    {
                      OFFSET -5.091371 -1.332055 -1.772385
                      CHANNELS 3 Zrotation Yrotation Xrotation
                      JOINT RightHandPinky3
                      {
                        OFFSET -3.062664 -4e-06 1e-06
                        CHANNELS 3 Zrotation Yrotation Xrotation
                        JOINT RightHandPinky4
                        {
                          OFFSET -1.546529 4e-06 -2e-06
                          CHANNELS 3 Zrotation Yrotation Xrotation
                          JOINT RightHandPinkyEnd
                          {
                            OFFSET -1.945119 -0.157718 0.057211
                            CHANNELS 3 Zrotation Yrotation Xrotation
                          }
                        }
                      }
                    }
                  }
                }
              }
            }
          }
        }
      }
    }
    JOINT LeftLeg
    {
      OFFSET 10.043214 -8.434526 2.595655
      CHANNELS 3 Zrotation Yrotation Xrotation
      JOINT LeftShin
      {
        OFFSET -1e-06 -43.221752 -0.802913
        CHANNELS 3 Zrotation Yrotation Xrotation
        JOINT LeftFoot
        {
          OFFSET 1e-06 -42.155094 -3.481523
          CHANNELS 3 Zrotation Yrotation Xrotation
          JOINT LeftToeBase
          {
            OFFSET 0.0 -5.059472 13.231529
            CHANNELS 3 Zrotation Yrotation Xrotation
            JOINT LeftToeEnd
            {
              OFFSET -0.009607 -1.647619 6.513017
              CHANNELS 3 Zrotation Yrotation Xrotation
            }
          }
        }
      }
    }
    JOINT RightLeg
    {
      OFFSET -10.047278 -8.29526 2.620317
      CHANNELS 3 Zrotation Yrotation Xrotation
      JOINT RightShin
      {
        OFFSET 1e-06 -43.362206 -0.805556
        CHANNELS 3 Zrotation Yrotation Xrotation
        JOINT RightFoot
        {
          OFFSET 2e-06 -42.117393 -3.478398
          CHANNELS 3 Zrotation Yrotation Xrotation
          JOINT RightToeBase
          {
            OFFSET -0.0 -5.079609 13.284196
            CHANNELS 3 Zrotation Yrotation Xrotation
            JOINT RightToeEnd
            {
              OFFSET 0.009532 -1.634378 6.460591
              CHANNELS 3 Zrotation Yrotation Xrotation
            }
          }
        }
      }
    }
  }
}
MOTION
Frames: 4
Frame Time: 0.03333333333333333
0.0 0.0 0.0 0.0 -0.0 0.0 -6.507926 49.428562 110.214684 -1.07824 5.131104 38.683052 1.48206 -1.701506 24.119955 0.336917 -1.676549 2.482495 3.594642 -3.600278 13.512922 1.429409 2.268747 2.722332 0.103752 1.671149 -3.491661 1.650665 2.786795 0.177507 7.7e-05 -2.3e-05 7e-06 -0.062272 0.019663 -0.200187 0.642857 -3.700706 -10.823339 -0.774094 3.754078 -10.797109 18.563412 -31.010077 3.241547 -12.773453 -38.405193 -27.140709 -0.650323 -23.414547 0.095005 57.310925 3.099709 -1.930076 -5.8821 9.861279 0.70259 -10.936862 -0.360575 7.1562 1e-06 8.77482 -1e-06 -15.988901 18.229555 6.265986 -1.844031 2.498503 -2.507276 -10.163589 4.67894 4.621106 -20.976006 -5e-06 -1e-06 -21.226263 2.451692 -3.593997 0.0 -6e-06 1e-06 -1.36268 2.240796 -0.746322 -21.334896 0.584907 3.008321 -13.821202 -3e-06 1e-06 -23.887152 -0.249081 -0.839482 -60.177326 2.750191 -1.340588 -0.294026 1.679687 0.833255 -14.218196 0.093213 1.300579 -34.212017 -0.287566 0.967169 -20.033194 0.964535 1.212843 0.0 -0.0 0.0 -3.440386 0.788232 0.501656 -15.928172 -3.167309 2.999704 -6.338818 -2e-06 1e-06 -18.123428 3.648179 -4.905666 -4e-06 -0.0 -2e-06 -2.017403 33.673428 8.286025 29.338394 44.441799 3.425466 0.171666 30.204153 0.093839 -78.036102 -1.891525 4.551 2.243541 -5.255033 -3.180157 14.282885 -0.826593 6.9525 -5e-06 -12.690597 1e-06 17.058788 -17.929993 2.005772 1.665666 -1.95592 -2.878298 4.727797 -4.170585 4.993921 11.02052 6e-06 -1e-06 12.109045 -3.735711 -2.866783 0.0 0.0 -0.0 1.291986 -1.928548 -1.498088 14.800122 0.567468 3.865606 14.242564 -1.341735 -6.660655 19.63196 0.143927 -0.648243 50.18325 -0.425097 -5.984596 0.353028 -1.51115 -0.03194 20.222784 3.684312 2.316631 18.787266 7e-06 2e-06 10.751622 -0.479867 1.397907 -0.0 0.0 0.0 3.273806 0.305946 -0.580112 21.486807 11.830369 2.266132 8.162922 3e-06 1e-06 18.399073 -3.798981 -4.94057 4e-06 -0.0 -1e-06 6.955552 1.079738 -18.662539 -0.52678 -1.983325 78.742592 -4.114529 -24.457447 36.244465 1.371528 -1.522976 -11.467516 0.0 -1e-06 3e-06 6.939507 -12.230096 -59.206947 0.14859 -0.576296 118.432678 9.384013 21.40715 40.750465 -1.173243 0.827724 -7.090652 -1e-06 1e-06 -3e-06 
0.0 0.0 0.0 0.0 -0.0 0.0 -7.018172 49.549652 112.820587 -1.881782 5.261201 39.727459 1.316497 -1.429791 23.712456 0.25654 -1.423721 2.320862 3.535942 -3.359046 13.101497 1.42597 2.484717 2.253615 0.041966 1.771013 -3.516254 1.864453 2.879596 0.217945 7.7e-05 -2.3e-05 7e-06 -0.092083 0.030578 -0.211507 0.604098 -3.668968 -10.786025 -0.793991 3.745471 -10.758588 18.522749 -29.920519 3.306273 -14.170734 -40.068645 -24.095917 -0.555243 -22.883177 0.115305 59.238579 2.861572 -1.284732 -5.882103 9.861281 0.702589 -10.936867 -0.360573 7.156201 2e-06 8.774822 -0.0 -16.017963 18.018581 6.262237 -1.844032 2.498503 -2.507276 -10.163594 4.678942 4.621107 -20.976013 -3e-06 -0.0 -21.226278 2.451695 -3.593999 0.0 -6e-06 1e-06 -1.362682 2.240797 -0.746323 -21.3349 0.584908 3.008321 -13.821206 -3e-06 1e-06 -23.887156 -0.249079 -0.839484 -60.268314 2.686397 -1.251562 -0.294023 1.679685 0.833255 -14.218201 0.093215 1.300579 -34.212036 -0.287563 0.967169 -20.033205 0.964536 1.212842 -0.0 -0.0 -0.0 -3.440385 0.788234 0.501655 -15.928177 -3.167308 2.999704 -6.338823 -1e-06 1e-06 -18.12344 3.648181 -4.905669 -4e-06 -0.0 -2e-06 -1.527245 34.016701 8.392876 29.822897 42.947674 1.815191 0.298052 34.32872 0.129261 -77.44799 0.603151 6.354344 2.24354 -5.255033 -3.180155 14.282878 -0.826594 6.952495 -1e-06 -12.690598 2e-06 17.374401 -18.078754 1.956272 1.665665 -1.955919 -2.878296 4.727793 -4.170587 4.993921 11.020517 4e-06 -3e-06 12.109042 -3.735713 -2.866785 0.0 0.0 -0.0 1.291985 -1.928549 -1.498089 14.800115 0.567467 3.865602 14.242562 -1.341735 -6.660654 19.631952 0.143928 -0.648246 50.543358 -0.354589 -5.978574 0.353029 -1.51115 -0.03194 20.222771 3.684308 2.316624 18.787256 5e-06 -2e-06 10.751619 -0.479868 1.397904 -1e-06 -0.0 0.0 3.273804 0.305947 -0.58011 21.486792 11.830368 2.266125 8.162919 2e-06 -1e-06 18.399067 -3.798983 -4.940575 3e-06 -0.0 -2e-06 8.533579 2.679476 -19.201082 -0.593361 -2.332943 78.449631 -3.655743 -22.315128 37.503849 1.518232 -1.644295 -8.629678 -0.0 -0.0 4e-06 8.05982 -10.792694 -56.7285 0.223217 -0.447936 115.11985 9.592272 22.272114 40.964909 -1.193623 0.79664 -6.722303 -1e-06 1e-06 -2e-06 
0.0 0.0 0.0 0.0 -0.0 0.0 -7.538344 49.771946 115.2388 -2.267979 5.348761 40.617794 1.061629 -1.169715 23.437559 0.128021 -1.30329 2.185768 3.239656 -3.19911 12.688148 1.637438 2.547156 1.714648 0.02019 2.005008 -3.534427 1.991027 2.983883 0.091896 7.7e-05 -2.2e-05 6e-06 -0.090691 0.033979 -0.217503 0.604749 -3.657928 -10.775706 -0.789931 3.740515 -10.750295 18.442493 -29.266108 3.361206 -15.101574 -41.382507 -21.268663 -0.518927 -22.091637 0.121347 61.06485 2.936853 -1.202064 -5.882105 9.861281 0.702591 -10.936871 -0.360574 7.156206 1e-06 8.774823 -0.0 -16.020483 17.867336 6.201569 -1.844031 2.498503 -2.507278 -10.163599 4.678944 4.621109 -20.976021 -3e-06 3e-06 -21.226286 2.451697 -3.594 -0.0 -6e-06 2e-06 -1.36268 2.240797 -0.746323 -21.334913 0.58491 3.008324 -13.821213 -2e-06 3e-06 -23.887171 -0.249077 -0.839482 -60.247227 2.68535 -1.219082 -0.294026 1.679687 0.833256 -14.218205 0.093215 1.300581 -34.212048 -0.287562 0.967172 -20.033211 0.964538 1.212843 -0.0 -0.0 0.0 -3.440387 0.788233 0.501655 -15.928185 -3.167309 2.999709 -6.338824 -1e-06 1e-06 -18.123444 3.648183 -4.905669 -4e-06 -0.0 -2e-06 -1.587195 34.349052 8.089275 29.291506 41.371788 -1.403237 0.440835 39.62141 0.132406 -76.169228 3.660411 7.995345 2.243541 -5.255035 -3.180157 14.282886 -0.826594 6.952501 -3e-06 -12.690598 1e-06 17.495331 -18.25655 2.031761 1.665665 -1.955921 -2.878299 4.727796 -4.170585 4.993922 11.02052 3e-06 -3e-06 12.109045 -3.735713 -2.866784 -1e-06 0.0 -1e-06 1.291985 -1.928548 -1.498089 14.800123 0.567468 3.865606 14.242568 -1.341735 -6.660658 19.63196 0.143927 -0.648247 50.875401 -0.374694 -6.120494 0.353028 -1.511149 -0.03194 20.222784 3.684309 2.316628 18.787268 5e-06 -2e-06 10.751625 -0.479868 1.397906 0.0 0.0 -1e-06 3.273806 0.305947 -0.580111 21.486803 11.830369 2.266129 8.162921 2e-06 -1e-06 18.399076 -3.798982 -4.940573 2e-06 0.0 -1e-06 9.702832 3.894897 -21.130745 -0.67175 -2.456187 80.895073 -2.001015 -19.8111 36.55864 1.64604 -1.753431 -6.520638 -0.0 -0.0 1e-06 8.735301 -9.720432 -54.49065 0.254453 -0.369205 111.950966 9.6334 22.97049 41.24044 -1.211988 0.783265 -6.780559 -1e-06 0.0 -2e-06 
0.0 0.0 0.0 0.0 -0.0 0.0 -8.036055 49.97039 117.568085 -2.190017 5.451199 41.264236 0.768153 -0.951997 23.312649 -0.014103 -1.269885 2.060222 2.789926 -3.149557 12.277902 2.052452 2.448319 1.233207 -0.003817 2.243996 -3.539416 1.917488 3.083828 -0.174838 7.7e-05 -2.2e-05 6e-06 -0.068977 0.02926 -0.217269 0.630269 -3.666334 -10.77245 -0.770129 3.737154 -10.753005 18.248791 -29.023933 3.416973 -15.736169 -42.503479 -18.571434 -0.449591 -21.098244 0.116582 62.556858 3.219694 -1.764084 -5.882102 9.861278 0.70259 -10.936868 -0.360576 7.156203 2e-06 8.774818 -1e-06 -15.907079 17.832008 6.181108 -1.844031 2.498504 -2.507277 -10.163594 4.678941 4.621109 -20.976015 -3e-06 6e-06 -21.226278 2.451697 -3.593994 -0.0 -6e-06 2e-06 -1.362681 2.240797 -0.746322 -21.334908 0.584909 3.008324 -13.821212 -3e-06 4e-06 -23.887161 -0.249077 -0.839479 -60.105263 2.659856 -1.169001 -0.294026 1.679687 0.833255 -14.2182 0.093213 1.300582 -34.21204 -0.287562 0.967175 -20.033205 0.964537 1.212847 0.0 -0.0 0.0 -3.440388 0.788231 0.501656 -15.928183 -3.167308 2.999708 -6.338824 -1e-06 3e-06 -18.123442 3.64818 -4.905664 -4e-06 0.0 -2e-06 -2.160702 34.696163 7.387516 27.675396 39.820351 -6.022364 0.637411 45.055523 0.068304 -73.953163 6.635077 9.230751 2.243543 -5.255036 -3.180156 14.282887 -0.826598 6.9525 2e-06 -12.690597 0.0 17.386957 -18.402992 2.201873 1.665667 -1.955921 -2.878297 4.727798 -4.170585 4.993922 11.02052 -0.0 -1e-06 12.10905 -3.735716 -2.866784 -0.0 1e-06 -1e-06 1.291985 -1.928548 -1.498089 14.800122 0.567465 3.865605 14.242566 -1.341738 -6.660655 19.631958 0.143923 -0.648248 51.101513 -0.434288 -6.311011 0.353029 -1.51115 -0.031941 20.222784 3.684304 2.316628 18.787268 1e-06 -3e-06 10.751625 -0.47987 1.397904 0.0 0.0 -0.0 3.273806 0.305946 -0.580111 21.486801 11.830361 2.26613 8.162924 1e-06 -2e-06 18.399076 -3.798985 -4.940577 2e-06 -1e-06 -1e-06 10.407241 4.715975 -24.013905 -0.74365 -2.415517 85.242699 0.044808 -17.633034 34.521564 1.729527 -1.838304 -5.23995 0.0 0.0 0.0 8.99309 -9.105264 -52.363869 0.250887 -0.323535 109.117775 9.350008 23.501886 41.432312 -1.216115 0.788444 -6.930091 -1e-06 1e-06 -3e-06 
